<?xml version="1.0" encoding="UTF-8"?>
<svg id="Layer_1" data-name="Layer 1" xmlns="http://www.w3.org/2000/svg" xmlns:xlink="http://www.w3.org/1999/xlink" viewBox="0 0 14400 14400">
  <defs>
    <linearGradient id="linear-gradient" x1="400.92" y1="10025.84" x2="11019.23" y2="10025.84" gradientUnits="userSpaceOnUse">
      <stop offset="0" stop-color="#c13a1b"/>
      <stop offset="1" stop-color="#f15a24"/>
    </linearGradient>
    <linearGradient id="linear-gradient-2" x1="164.76" y1="2961.23" x2="14235.24" y2="2961.23" xlink:href="#linear-gradient"/>
  </defs>
  <g id="logo">
    <path d="m10895.13,6493.53H3903.43c-1934.38,0-3502.51,1568.13-3502.51,3502.51v59.59c0,1934.39,1568.13,3502.52,3502.51,3502.52h.02c1934.37,0,3502.51-1568.13,3502.51-3502.52v-59.59c0-222.84-20.82-440.83-60.59-652.12h1572.36c1160.62,0,2101.5-940.88,2101.5-2101.5v-35.75c0-250.36-43.78-490.47-124.1-713.13Zm-5590.68,3544.22c0,773.77-627.25,1401.02-1401,1401.02h-.02c-773.75,0-1401-627.25-1401-1401.02v-23.83c0-773.75,627.25-1401,1401-1401h.02c773.75,0,1401,627.25,1401,1401v23.83Z" style="fill: url(#linear-gradient);"/>
    <path d="m14235.24,2943.36v35.75c0,1160.62-940.87,2101.5-2101.5,2101.5H3667.28c-1913.78,0-3469.07-1534.87-3501.98-3440.81-.37-20.53-.54-41.09-.54-61.7v-59.59c0-231.48,22.45-457.72,65.31-676.67h11903.67c290.16,0,566.58,58.81,818.01,165.14,754.26,319.02,1283.5,1065.89,1283.5,1936.36Z" style="fill: url(#linear-gradient-2);"/>
  </g>
</svg>